<?xml version="1.0" standalone="no"?>
<!DOCTYPE svg PUBLIC "-//W3C//DTD SVG 20010904//EN"
 "http://www.w3.org/TR/2001/REC-SVG-20010904/DTD/svg10.dtd">
<svg version="1.0" xmlns="http://www.w3.org/2000/svg"
 width="211.000000pt" height="194.000000pt" viewBox="0 0 211.000000 194.000000"
 preserveAspectRatio="xMidYMid meet">

<g transform="translate(0.000000,194.000000) scale(0.100000,-0.100000)"
fill="#000000" stroke="none">
<path d="M315 1856 c-91 -42 -206 -164 -230 -244 -7 -23 -7 -24 19 -7 l27 18
-11 -27 c-26 -69 -8 -151 58 -263 l31 -52 -40 -68 c-21 -37 -58 -115 -80 -172
-35 -88 -41 -116 -41 -176 1 -74 28 -164 71 -235 l21 -35 0 40 0 40 24 -58
c70 -170 198 -304 399 -417 l57 -32 0 26 0 25 68 -34 c37 -18 95 -44 127 -56
33 -12 76 -32 95 -45 90 -57 190 -58 292 -1 35 19 74 38 88 42 14 4 71 27 127
51 56 24 104 44 107 44 2 0 2 -9 -1 -20 -8 -29 9 -25 84 20 178 109 278 226
358 420 32 80 44 85 46 22 0 -21 5 -14 21 28 14 37 22 89 25 160 5 97 3 112
-26 200 -17 52 -49 131 -70 175 -35 71 -38 82 -25 96 20 22 84 169 84 193 0
19 0 19 21 0 l21 -19 -7 35 c-19 90 -139 257 -229 318 -33 21 -60 32 -85 32
-50 0 -126 -38 -188 -94 l-53 -48 -27 19 c-60 41 -88 46 -228 40 -97 -4 -162
-2 -232 9 -212 33 -235 31 -336 -30 l-57 -35 -26 35 c-31 40 -152 104 -198
104 -17 0 -54 -11 -81 -24z m154 -81 c58 -36 57 -44 -2 -24 -29 10 -60 18 -69
19 -9 0 -53 -24 -97 -54 -44 -29 -76 -46 -71 -37 11 21 89 95 115 109 33 19
83 13 124 -13z m1311 9 c34 -23 100 -85 110 -105 5 -9 -27 8 -71 37 -44 30
-88 54 -97 54 -9 -1 -40 -9 -69 -19 -58 -20 -60 -12 -5 24 44 28 98 32 132 9z
m-835 -79 c61 -8 180 -15 265 -15 l156 0 89 -51 c78 -44 175 -121 175 -139 0
-3 -34 -24 -76 -48 -42 -24 -74 -45 -72 -47 2 -3 33 4 69 15 101 31 188 23
204 -19 4 -9 18 -47 32 -86 14 -38 45 -109 69 -158 58 -114 69 -168 55 -262
-13 -88 -51 -212 -93 -303 l-31 -67 -9 61 c-4 34 -14 78 -21 100 l-14 38 -6
-91 c-8 -108 -34 -185 -82 -239 l-34 -39 -1 36 c0 44 -33 170 -60 234 -11 26
-19 50 -16 52 9 9 70 -93 87 -146 l18 -56 0 60 c1 109 -60 282 -134 380 -19
25 -35 47 -35 50 0 11 118 -55 178 -99 34 -25 62 -43 62 -38 0 4 -9 22 -20 39
l-20 33 35 14 c40 17 63 58 70 123 4 31 2 41 -3 29 -10 -23 -14 -18 -37 54
-10 30 -24 68 -32 83 l-14 28 31 -16 c30 -16 31 -16 21 3 -15 28 -68 71 -97
78 -44 11 -100 -3 -196 -47 -79 -37 -104 -44 -168 -47 -126 -5 -133 27 -20 84
98 51 104 65 13 36 -106 -34 -116 -39 -157 -80 l-37 -35 22 -23 22 -24 -36
-15 c-27 -11 -42 -12 -66 -4 -36 13 -37 16 -15 41 16 16 14 21 -22 73 -45 65
-107 126 -155 150 l-34 17 26 -28 c15 -16 45 -58 68 -93 38 -60 40 -65 25 -82
-40 -44 -74 -34 -170 49 -88 76 -137 102 -192 102 -48 0 -106 -26 -137 -61
l-20 -22 23 6 c19 4 22 3 16 -11 -19 -44 -74 -209 -74 -227 -1 -16 -4 -14 -16
10 -14 29 -14 28 -10 -29 5 -67 26 -103 73 -127 30 -15 30 -15 12 -38 -11 -13
-19 -31 -19 -41 0 -15 6 -13 32 12 51 47 178 128 203 128 2 0 -12 -21 -32 -47
-96 -126 -173 -381 -133 -443 8 -12 10 -11 10 7 0 38 38 127 70 163 l31 35
-20 -40 c-30 -63 -54 -154 -60 -230 l-6 -70 -38 60 c-45 72 -68 144 -76 245
l-6 75 -18 -67 c-9 -37 -17 -82 -17 -100 l0 -33 -21 25 c-37 46 -90 162 -110
238 -34 135 -21 253 41 353 17 29 44 86 60 128 46 125 75 185 109 224 51 57
127 69 204 30 40 -20 41 -13 7 29 l-30 37 62 44 c70 49 100 66 137 78 14 4 26
8 26 8 0 0 50 -6 110 -14z m-266 -494 c36 -27 81 -56 100 -66 l35 -17 -25 -14
c-52 -29 -138 -9 -177 41 -27 34 -30 105 -4 105 2 0 34 -22 71 -49z m841 -42
c0 -6 -14 -24 -31 -40 -25 -23 -40 -29 -78 -29 -26 0 -56 6 -67 14 -18 14 -18
15 11 21 17 4 57 15 90 25 74 22 75 22 75 9z m-564 -120 c10 -11 27 -25 38
-31 18 -10 18 -9 2 13 -9 13 -16 26 -16 29 0 3 38 5 85 5 47 0 85 -2 85 -5 0
-3 -7 -16 -16 -28 -21 -31 -11 -28 32 10 l36 32 29 -32 c16 -18 29 -40 29 -48
0 -15 -2 -15 -24 -1 -22 15 -25 15 -42 -5 -26 -28 -92 -58 -132 -58 -36 0 -85
21 -119 53 -19 17 -27 19 -48 9 -31 -14 -34 1 -8 38 31 45 42 48 69 19z m-41
-234 c30 -21 55 -40 55 -41 0 -2 -15 -1 -32 2 -28 5 -23 0 32 -33 70 -42 81
-62 60 -114 -26 -61 -98 -38 -150 47 -15 23 -25 32 -30 24 -5 -8 -18 2 -40 29
-19 23 -36 41 -40 41 -9 0 -75 -89 -99 -134 -47 -89 -39 48 10 176 17 43 35
80 40 83 5 4 14 -6 21 -22 7 -17 12 -22 14 -13 1 8 5 32 9 53 l6 38 44 -49
c24 -27 69 -66 100 -87z m127 83 c22 -8 38 -5 84 16 31 15 59 24 62 21 3 -2
-25 -18 -61 -35 l-65 -31 -61 31 c-67 33 -83 50 -23 24 20 -9 49 -20 64 -26z
m319 10 c1 -18 1 -39 0 -45 -3 -23 8 -14 25 19 l17 32 23 -47 c30 -59 54 -157
53 -222 l0 -50 -20 38 c-11 20 -23 37 -27 37 -4 0 -32 -16 -62 -35 -60 -39
-94 -48 -68 -17 9 9 21 27 27 40 11 21 8 20 -31 -8 -118 -86 -208 -80 -208 15
0 39 3 43 38 59 20 10 51 28 67 42 l30 25 -28 -11 c-46 -16 -45 -12 3 20 48
32 140 118 140 132 0 4 5 8 10 8 6 0 11 -15 11 -32z m-446 -355 c112 -57 280
-73 404 -39 67 18 80 14 81 -25 0 -21 -20 -29 -71 -29 -49 0 -44 -12 11 -30
44 -15 47 -28 9 -49 -23 -13 -28 -11 -71 21 -99 76 -338 79 -438 7 -28 -21
-48 -28 -61 -24 -23 8 -49 61 -49 99 0 25 0 25 35 10 19 -8 35 -10 35 -5 0 4
33 7 73 5 39 -1 61 0 47 3 -14 3 -53 18 -87 33 -34 16 -63 24 -65 19 -2 -5
-12 -4 -22 4 -18 13 -18 15 3 61 l21 48 52 -45 c29 -24 71 -54 93 -64z m312
-197 c77 -36 96 -56 55 -56 -10 0 -49 13 -87 30 -101 43 -170 41 -266 -5 -73
-35 -151 -47 -164 -25 -4 6 6 10 23 10 16 0 51 11 78 26 108 56 136 64 209 61
57 -2 85 -10 152 -41z"/>
</g>
</svg>
